<svg width="49" height="49" viewBox="0 0 49 49" fill="none" xmlns="http://www.w3.org/2000/svg">
<circle cx="24.5" cy="24.5" r="24.5" fill="var(--secondary)"/>
<path d="M25.4399 29.6919C24.8263 30.3999 24.1372 30.971 23.3726 31.4053C22.6174 31.8301 21.8574 32.0425 21.0928 32.0425C20.2526 32.0425 19.436 31.797 18.6431 31.3062C17.8501 30.8153 17.2035 30.0601 16.7031 29.0405C16.2122 28.021 15.9668 26.9023 15.9668 25.6846C15.9668 24.1836 16.3491 22.6826 17.1138 21.1816C17.8879 19.6712 18.846 18.5384 19.9883 17.7832C21.1305 17.028 22.2397 16.6504 23.3159 16.6504C24.1372 16.6504 24.9207 16.8675 25.6665 17.3018C26.4123 17.7266 27.0542 18.3779 27.5923 19.2559L28.0737 17.061H30.6084L28.5693 26.5625C28.2861 27.8841 28.1445 28.6157 28.1445 28.7573C28.1445 29.0122 28.2389 29.234 28.4277 29.4229C28.626 29.6022 28.862 29.6919 29.1357 29.6919C29.6361 29.6919 30.2922 29.404 31.104 28.8281C32.1802 28.0729 33.0298 27.0628 33.6528 25.7979C34.2853 24.5234 34.6016 23.2113 34.6016 21.8613C34.6016 20.2848 34.1956 18.8122 33.3838 17.4434C32.5814 16.0745 31.3778 14.9795 29.7729 14.1582C28.1776 13.3369 26.4123 12.9263 24.4771 12.9263C22.2681 12.9263 20.2479 13.4455 18.4165 14.4839C16.5946 15.5129 15.1785 16.995 14.1685 18.9302C13.1678 20.856 12.6675 22.9233 12.6675 25.1323C12.6675 27.4451 13.1678 29.437 14.1685 31.1079C15.1785 32.7788 16.6323 34.0107 18.5298 34.8037C20.4367 35.6061 22.5465 36.0073 24.8594 36.0073C27.3327 36.0073 29.4048 35.592 31.0757 34.7612C32.7466 33.9305 33.9974 32.9204 34.8281 31.731H37.3911C36.9097 32.7222 36.0837 33.7323 34.9131 34.7612C33.7425 35.7902 32.3501 36.6021 30.7358 37.1968C29.1216 37.8009 27.1769 38.103 24.9019 38.103C22.8062 38.103 20.8709 37.834 19.0962 37.2959C17.3309 36.7578 15.8252 35.946 14.5791 34.8604C13.333 33.7842 12.3937 32.5428 11.7612 31.1362C10.9683 29.3521 10.5718 27.4263 10.5718 25.3589C10.5718 23.0555 11.0438 20.8607 11.9878 18.7744C13.1395 16.2161 14.7726 14.2573 16.8872 12.8979C19.0112 11.5386 21.5837 10.8589 24.6045 10.8589C26.9456 10.8589 29.0461 11.3403 30.9058 12.3032C32.7749 13.2567 34.2476 14.6821 35.3237 16.5796C36.2394 18.2127 36.6973 19.9875 36.6973 21.9038C36.6973 24.6414 35.7344 27.0723 33.8086 29.1963C32.0905 31.1032 30.2119 32.0566 28.1729 32.0566C27.5215 32.0566 26.9928 31.9575 26.5869 31.7593C26.1904 31.561 25.8978 31.2778 25.709 30.9097C25.5863 30.6737 25.4966 30.2677 25.4399 29.6919ZM18.5864 25.8545C18.5864 27.1478 18.8932 28.1532 19.5068 28.8706C20.1204 29.5881 20.8237 29.9468 21.6167 29.9468C22.1453 29.9468 22.7023 29.791 23.2876 29.4795C23.8729 29.1585 24.4299 28.6865 24.9585 28.0635C25.4966 27.4404 25.9355 26.6522 26.2754 25.6987C26.6152 24.7358 26.7852 23.7729 26.7852 22.8101C26.7852 21.5262 26.4642 20.5303 25.8223 19.8223C25.1898 19.1143 24.4157 18.7603 23.5 18.7603C22.8958 18.7603 22.3247 18.916 21.7866 19.2275C21.258 19.5296 20.7435 20.0205 20.2432 20.7002C19.7428 21.3799 19.3416 22.2059 19.0396 23.1782C18.7375 24.1506 18.5864 25.0426 18.5864 25.8545Z" fill="var(--primary)"/>
</svg>
