<svg width="49" height="49" viewBox="0 0 49 49" fill="none" xmlns="http://www.w3.org/2000/svg">
<circle cx="24.5" cy="24.5" r="24.5" fill="var(--secondary)"/>
<path fill-rule="evenodd" clip-rule="evenodd" d="M24.5 10C20.562 10 20.0684 10.0169 18.5218 10.087C16.9781 10.1577 15.9238 10.403 15.0019 10.7612C14.0485 11.1316 13.2395 11.6276 12.4342 12.4336C11.6276 13.2395 11.1316 14.0485 10.7613 15.0019C10.403 15.9245 10.1571 16.9781 10.087 18.5218C10.0169 20.0684 10 20.562 10 24.5C10 28.438 10.0169 28.9316 10.087 30.4782C10.1577 32.0219 10.403 33.0761 10.7613 33.9981C11.1316 34.9515 11.6276 35.7605 12.4336 36.5658C13.2396 37.3724 14.0485 37.8684 15.0019 38.2394C15.9245 38.597 16.9781 38.8423 18.5218 38.913C20.0684 38.9831 20.562 39 24.5 39C28.438 39 28.9316 38.9831 30.4782 38.913C32.0219 38.8423 33.0762 38.597 33.9981 38.2388C34.9515 37.8684 35.7605 37.3724 36.5658 36.5664C37.3724 35.7605 37.8684 34.9515 38.2394 33.9981C38.597 33.0755 38.8423 32.0219 38.913 30.4782C38.9831 28.9316 39 28.438 39 24.5C39 20.562 38.9831 20.0684 38.913 18.5218C38.8423 16.9781 38.597 15.9239 38.2387 15.0019C37.8684 14.0485 37.3724 13.2395 36.5664 12.4342C35.7605 11.6276 34.9515 11.1316 33.9981 10.7612C33.0755 10.403 32.0219 10.1571 30.4782 10.087C28.9316 10.0169 28.438 10 24.5 10ZM24.5 12.6124C28.3715 12.6124 28.8301 12.6275 30.3592 12.697C31.773 12.7616 32.5403 12.9979 33.052 13.1966C33.7287 13.4595 34.212 13.7736 34.7195 14.2811C35.2264 14.7886 35.5405 15.272 35.8033 15.9486C36.0027 16.4591 36.2384 17.227 36.303 18.6408C36.3725 20.1693 36.3876 20.6285 36.3876 24.5C36.3876 28.3715 36.3725 28.8301 36.303 30.3592C36.2384 31.773 36.0021 32.5403 35.8033 33.052C35.5405 33.7286 35.2264 34.212 34.7189 34.7195C34.2114 35.2264 33.728 35.5405 33.0514 35.8034C32.5408 36.0027 31.773 36.2384 30.3592 36.303C28.8307 36.3725 28.3715 36.3876 24.5 36.3876C20.6279 36.3876 20.1693 36.3725 18.6408 36.303C17.227 36.2384 16.4598 36.0021 15.948 35.8034C15.2714 35.5405 14.788 35.2264 14.2805 34.7189C13.7736 34.2114 13.4594 33.728 13.1966 33.0514C12.9973 32.5409 12.7616 31.773 12.697 30.3592C12.6275 28.8307 12.6124 28.3715 12.6124 24.5C12.6124 20.6285 12.6275 20.1699 12.697 18.6408C12.7616 17.227 12.9979 16.4598 13.1966 15.948C13.4594 15.2714 13.7736 14.788 14.2811 14.2805C14.7886 13.7736 15.272 13.4595 15.9486 13.1966C16.4592 12.9973 17.227 12.7616 18.6408 12.697C20.1693 12.6275 20.6285 12.6124 24.5 12.6124ZM24.5 17.0542C20.3874 17.0542 17.0542 20.3874 17.0542 24.5C17.0542 28.6126 20.3874 31.9458 24.5 31.9458C28.6126 31.9458 31.9457 28.6126 31.9457 24.5C31.9457 20.3874 28.6126 17.0542 24.5 17.0542ZM24.5 29.3333C23.2181 29.3333 21.9887 28.8241 21.0823 27.9177C20.1759 27.0113 19.6667 25.7819 19.6667 24.5C19.6667 23.2181 20.1759 21.9887 21.0823 21.0823C21.9887 20.1759 23.2181 19.6667 24.5 19.6667C25.7819 19.6667 27.0113 20.1759 27.9177 21.0823C28.8241 21.9887 29.3333 23.2181 29.3333 24.5C29.3333 25.7819 28.8241 27.0113 27.9177 27.9177C27.0113 28.8241 25.7819 29.3333 24.5 29.3333ZM33.98 16.76C33.98 17.2215 33.7967 17.6641 33.4703 17.9904C33.144 18.3167 32.7014 18.5 32.24 18.5C31.7785 18.5 31.3359 18.3167 31.0096 17.9904C30.6833 17.6641 30.5 17.2215 30.5 16.76C30.5 16.2985 30.6833 15.856 31.0096 15.5297C31.3359 15.2033 31.7785 15.02 32.24 15.02C32.7014 15.02 33.144 15.2033 33.4703 15.5297C33.7967 15.856 33.98 16.2985 33.98 16.76Z" fill="var(--primary)"/>
</svg>
