<svg width="29" height="29" viewBox="0 0 29 29" fill="none" xmlns="http://www.w3.org/2000/svg">
<path fill-rule="evenodd" clip-rule="evenodd" d="M14.5 0C10.562 0 10.0684 0.016915 8.52176 0.0869983C6.97811 0.157686 5.92385 0.402976 5.00189 0.761247C4.04852 1.1316 3.23954 1.62762 2.43418 2.43358C1.62762 3.23954 1.13161 4.04853 0.761256 5.0019C0.402985 5.92446 0.157091 6.97812 0.0870075 8.52177C0.0169242 10.0684 0 10.562 0 14.5C0 18.438 0.0169242 18.9316 0.0870075 20.4782C0.157695 22.0219 0.402985 23.0761 0.761256 23.9981C1.13161 24.9515 1.62763 25.7605 2.43359 26.5658C3.23955 27.3724 4.04852 27.8684 5.00189 28.2394C5.92445 28.597 6.97811 28.8423 8.52176 28.913C10.0684 28.9831 10.562 29 14.5 29C18.438 29 18.9316 28.9831 20.4782 28.913C22.0219 28.8423 23.0762 28.597 23.9981 28.2388C24.9515 27.8684 25.7605 27.3724 26.5658 26.5664C27.3724 25.7605 27.8684 24.9515 28.2394 23.9981C28.597 23.0755 28.8423 22.0219 28.913 20.4782C28.9831 18.9316 29 18.438 29 14.5C29 10.562 28.9831 10.0684 28.913 8.52177C28.8423 6.97812 28.597 5.92386 28.2387 5.0019C27.8684 4.04853 27.3724 3.23955 26.5664 2.43419C25.7605 1.62763 24.9515 1.1316 23.9981 0.761247C23.0755 0.402976 22.0219 0.157082 20.4782 0.0869983C18.9316 0.016915 18.438 0 14.5 0ZM14.5 2.61242C18.3715 2.61242 18.8301 2.62752 20.3592 2.697C21.773 2.76165 22.5403 2.99788 23.052 3.19665C23.7287 3.45946 24.212 3.77362 24.7195 4.28112C25.2264 4.78862 25.5405 5.27195 25.8033 5.94862C26.0027 6.45914 26.2384 7.22704 26.303 8.64079C26.3725 10.1693 26.3876 10.6285 26.3876 14.5C26.3876 18.3715 26.3725 18.8301 26.303 20.3592C26.2384 21.773 26.0021 22.5403 25.8033 23.052C25.5405 23.7286 25.2264 24.212 24.7189 24.7195C24.2114 25.2264 23.728 25.5405 23.0514 25.8034C22.5408 26.0027 21.773 26.2384 20.3592 26.303C18.8307 26.3725 18.3715 26.3876 14.5 26.3876C10.6279 26.3876 10.1693 26.3725 8.64079 26.303C7.22704 26.2384 6.45975 26.0021 5.94802 25.8034C5.27136 25.5405 4.78802 25.2264 4.28052 24.7189C3.77362 24.2114 3.45945 23.728 3.19664 23.0514C2.99726 22.5409 2.76164 21.773 2.69699 20.3592C2.62751 18.8307 2.61242 18.3715 2.61242 14.5C2.61242 10.6285 2.62751 10.1699 2.69699 8.64079C2.76164 7.22704 2.99787 6.45975 3.19664 5.94802C3.45945 5.27136 3.77362 4.78802 4.28112 4.28053C4.78862 3.77363 5.27196 3.45946 5.94863 3.19665C6.45915 2.99727 7.22704 2.76165 8.64079 2.697C10.1693 2.62752 10.6285 2.61242 14.5 2.61242ZM14.5 7.05425C10.3874 7.05425 7.05425 10.3874 7.05425 14.5C7.05425 18.6126 10.3874 21.9458 14.5 21.9458C18.6126 21.9458 21.9457 18.6126 21.9457 14.5C21.9457 10.3874 18.6126 7.05425 14.5 7.05425ZM14.5 19.3333C13.2181 19.3333 11.9887 18.8241 11.0823 17.9177C10.1759 17.0113 9.66667 15.7819 9.66667 14.5C9.66667 13.2181 10.1759 11.9887 11.0823 11.0823C11.9887 10.1759 13.2181 9.66667 14.5 9.66667C15.7819 9.66667 17.0113 10.1759 17.9177 11.0823C18.8241 11.9887 19.3333 13.2181 19.3333 14.5C19.3333 15.7819 18.8241 17.0113 17.9177 17.9177C17.0113 18.8241 15.7819 19.3333 14.5 19.3333ZM23.98 6.76002C23.98 7.2215 23.7967 7.66407 23.4703 7.99038C23.144 8.3167 22.7014 8.50002 22.24 8.50002C21.7785 8.50002 21.3359 8.3167 21.0096 7.99038C20.6833 7.66407 20.5 7.2215 20.5 6.76002C20.5 6.29854 20.6833 5.85597 21.0096 5.52965C21.3359 5.20334 21.7785 5.02002 22.24 5.02002C22.7014 5.02002 23.144 5.20334 23.4703 5.52965C23.7967 5.85597 23.98 6.29854 23.98 6.76002Z" fill="#333033"/>
</svg>
