<svg width="49" height="49" viewBox="0 0 49 49" fill="none" xmlns="http://www.w3.org/2000/svg">
<path d="M24.5 0C10.9683 0 0 10.9683 0 24.5C0 38.0301 10.9683 49 24.5 49C38.0317 49 49 38.0301 49 24.5C49 10.9683 38.0317 0 24.5 0Z" fill="white"/>
<path d="M37.2001 35.1299V25.7327C37.2001 20.6979 34.5128 18.3551 30.9281 18.3551C28.0356 18.3551 26.7401 19.9461 26.0189 21.0624V18.7394H20.5707C20.6427 20.2784 20.5707 35.1299 20.5707 35.1299H26.0189V25.9761C26.0189 25.4877 26.0541 24.9977 26.1981 24.6485C26.5916 23.6701 27.4874 22.6564 28.9926 22.6564C30.9649 22.6564 31.7535 24.1585 31.7535 26.362V35.1315L37.2001 35.1299ZM14.8301 16.5023C16.7288 16.5023 17.9125 15.2421 17.9125 13.6695C17.8773 12.0617 16.7288 10.8382 14.8653 10.8382C13.0018 10.8382 11.7844 12.0617 11.7844 13.6695C11.7844 15.2436 12.9665 16.5023 14.7964 16.5023H14.8301ZM17.5542 35.1299V18.7394H12.1075V35.1299H17.5542Z" fill="#333033"/>
</svg>
