<svg width="46" height="46" viewBox="0 0 46 46" fill="none" xmlns="http://www.w3.org/2000/svg">
<path d="M39.4338 13.5774C38.3951 14.0597 37.208 14.3565 36.0951 14.5419C36.6516 14.4677 37.4306 13.4661 37.7645 13.0952C38.2467 12.5016 38.6548 11.7968 38.8774 11.0548C38.9145 10.9806 38.9145 10.9065 38.8774 10.8694C38.8032 10.8323 38.7661 10.8694 38.6919 10.8694C37.4306 11.5371 36.1322 12.0565 34.7226 12.3903C34.6113 12.4274 34.5371 12.3903 34.4629 12.3161C34.3516 12.1677 34.2403 12.0565 34.129 11.9452C33.5355 11.4629 32.9048 11.0548 32.2 10.7581C31.2726 10.3871 30.2338 10.2016 29.2322 10.2758C28.2677 10.35 27.3032 10.6097 26.45 11.0548C25.5968 11.5 24.8177 12.1306 24.1871 12.9097C23.5564 13.6887 23.0742 14.6161 22.8516 15.6177C22.629 16.5823 22.629 17.5097 22.7774 18.4742C22.8145 18.6226 22.7774 18.6597 22.629 18.6226C17.1387 17.8436 12.6129 15.9145 8.9403 11.7226C8.79191 11.5371 8.68062 11.5371 8.56933 11.7226C6.97417 14.1339 7.7532 17.9919 9.75643 19.921C10.0161 20.1806 10.3129 20.4403 10.6097 20.6629C10.4984 20.7 9.16288 20.5516 7.97578 19.921C7.8274 19.8097 7.7532 19.8839 7.71611 20.0694C7.71611 20.329 7.71611 20.5516 7.7532 20.8484C8.04998 23.2968 9.75643 25.5597 12.0564 26.4129C12.3161 26.5242 12.65 26.6355 12.9468 26.6726C12.4274 26.7839 11.8709 26.8581 10.35 26.7468C10.1645 26.7097 10.0903 26.821 10.1645 26.9694C11.2774 30.0855 13.7258 31.0129 15.5806 31.5323C15.8403 31.5694 16.0629 31.5694 16.3226 31.6436C16.3226 31.6807 16.2855 31.6806 16.2855 31.6806C15.6919 32.6081 13.5774 33.3129 12.5758 33.6468C10.7951 34.2774 8.82901 34.5371 6.93708 34.3516C6.6403 34.3145 6.56611 34.3145 6.49191 34.3516C6.41772 34.3887 6.49191 34.4629 6.56611 34.5371C6.93708 34.7968 7.34514 35.0194 7.7532 35.2419C8.9403 35.8726 10.2016 36.3919 11.5 36.7629C18.2516 38.6177 25.8935 37.2452 30.9758 32.2C34.9451 28.2677 36.3548 22.8145 36.3548 17.3242C36.3548 17.1016 36.6145 16.9903 36.7629 16.879C37.8016 16.1 38.6177 15.1726 39.3967 14.1339C39.5822 13.9113 39.5451 13.6887 39.5451 13.6145V13.5774C39.5451 13.5032 39.5822 13.5032 39.4338 13.5774Z" fill="#333033"/>
<path fill-rule="evenodd" clip-rule="evenodd" d="M16.2855 37.4677C19.0678 37.4677 16.3968 37.4677 16.2855 37.4677C16.6565 37.4677 16.2485 37.4677 16.2855 37.4677ZM16.2855 37.4677C16.2485 37.4677 15.7291 37.4677 16.2855 37.4677C16.2855 37.4677 16.1743 37.4677 16.2855 37.4677ZM17.3985 37.5048C17.3985 37.4306 17.992 37.5048 17.3985 37.5048C17.3985 37.4677 17.4726 37.5048 17.3985 37.5048ZM29.121 10.35C29.0839 10.3871 29.0468 10.3871 28.9726 10.35C29.0097 10.35 29.0839 10.35 29.121 10.35Z" fill="#333033"/>
</svg>
