<svg width="49" height="49" viewBox="0 0 49 49" fill="none" xmlns="http://www.w3.org/2000/svg">
<circle cx="24.5" cy="24.5" r="24.5" fill="var(--secondary)"/>
<path d="M40.4338 14.5774C39.3951 15.0597 38.208 15.3565 37.0951 15.5419C37.6516 15.4677 38.4306 14.4661 38.7645 14.0952C39.2467 13.5016 39.6548 12.7968 39.8774 12.0548C39.9145 11.9806 39.9145 11.9065 39.8774 11.8694C39.8032 11.8323 39.7661 11.8694 39.6919 11.8694C38.4306 12.5371 37.1322 13.0565 35.7226 13.3903C35.6113 13.4274 35.5371 13.3903 35.4629 13.3161C35.3516 13.1677 35.2403 13.0565 35.129 12.9452C34.5355 12.4629 33.9048 12.0548 33.2 11.7581C32.2726 11.3871 31.2338 11.2016 30.2322 11.2758C29.2677 11.35 28.3032 11.6097 27.45 12.0548C26.5968 12.5 25.8177 13.1306 25.1871 13.9097C24.5564 14.6887 24.0742 15.6161 23.8516 16.6177C23.629 17.5823 23.629 18.5097 23.7774 19.4742C23.8145 19.6226 23.7774 19.6597 23.629 19.6226C18.1387 18.8436 13.6129 16.9145 9.9403 12.7226C9.79191 12.5371 9.68062 12.5371 9.56933 12.7226C7.97417 15.1339 8.7532 18.9919 10.7564 20.921C11.0161 21.1806 11.3129 21.4403 11.6097 21.6629C11.4984 21.7 10.1629 21.5516 8.97578 20.921C8.8274 20.8097 8.7532 20.8839 8.71611 21.0694C8.71611 21.329 8.71611 21.5516 8.7532 21.8484C9.04998 24.2968 10.7564 26.5597 13.0564 27.4129C13.3161 27.5242 13.65 27.6355 13.9468 27.6726C13.4274 27.7839 12.8709 27.8581 11.35 27.7468C11.1645 27.7097 11.0903 27.821 11.1645 27.9694C12.2774 31.0855 14.7258 32.0129 16.5806 32.5323C16.8403 32.5694 17.0629 32.5694 17.3226 32.6436C17.3226 32.6807 17.2855 32.6806 17.2855 32.6806C16.6919 33.6081 14.5774 34.3129 13.5758 34.6468C11.7951 35.2774 9.82901 35.5371 7.93708 35.3516C7.6403 35.3145 7.56611 35.3145 7.49191 35.3516C7.41772 35.3887 7.49191 35.4629 7.56611 35.5371C7.93708 35.7968 8.34514 36.0194 8.7532 36.2419C9.9403 36.8726 11.2016 37.3919 12.5 37.7629C19.2516 39.6177 26.8935 38.2452 31.9758 33.2C35.9451 29.2677 37.3548 23.8145 37.3548 18.3242C37.3548 18.1016 37.6145 17.9903 37.7629 17.879C38.8016 17.1 39.6177 16.1726 40.3967 15.1339C40.5822 14.9113 40.5451 14.6887 40.5451 14.6145V14.5774C40.5451 14.5032 40.5822 14.5032 40.4338 14.5774Z" fill="var(--primary)"/>
<path fill-rule="evenodd" clip-rule="evenodd" d="M17.2855 38.4677C20.0678 38.4677 17.3968 38.4677 17.2855 38.4677C17.6565 38.4677 17.2485 38.4677 17.2855 38.4677ZM17.2855 38.4677C17.2485 38.4677 16.7291 38.4677 17.2855 38.4677C17.2855 38.4677 17.1743 38.4677 17.2855 38.4677ZM18.3985 38.5048C18.3985 38.4306 18.992 38.5048 18.3985 38.5048C18.3985 38.4677 18.4726 38.5048 18.3985 38.5048ZM30.121 11.35C30.0839 11.3871 30.0468 11.3871 29.9726 11.35C30.0097 11.35 30.0839 11.35 30.121 11.35Z" fill="var(--primary)"/>
</svg>
